<svg id="Layer_1" data-name="Layer 1" xmlns="http://www.w3.org/2000/svg" viewBox="0 0 638 492.3"><defs><style>.cls-1{fill:#0070d1;}</style></defs><title>PlayStation Logo Vector</title><path class="cls-1" d="M792.21,732.26c-.32-.1-.6-.51-.83-1.17,0-.45-.13-1.12-.19-2.07l-.16-3.47a5.92,5.92,0,0,0-1-3.61,5,5,0,0,0-1.58-1.32,7.41,7.41,0,0,0,2-2,7.21,7.21,0,0,0,1.09-4.13c0-3.22-1.38-5.45-4-6.63a11.77,11.77,0,0,0-5.14-.92H769.89V734h4.68V722.91H782a9,9,0,0,1,2.93.4,3.08,3.08,0,0,1,1.49,2.93l.22,4.31c.1,1,.13,1.71.2,2.13a3.43,3.43,0,0,0,.32,1l.19.33h5.26v-1.56ZM785.65,718a6.46,6.46,0,0,1-3.57.84h-7.51v-7.68h8a5.87,5.87,0,0,1,2.61.49,3.24,3.24,0,0,1,1.66,3.23A3.62,3.62,0,0,1,785.65,718Z" transform="translate(-181 -253.85)"/><path class="cls-1" d="M797.46,703.79a23.94,23.94,0,0,0-17.22-7.18,24.35,24.35,0,0,0-17.19,41.54,24.28,24.28,0,0,0,41.48-17.22A24.28,24.28,0,0,0,797.46,703.79Zm-17.22,37.4a20.24,20.24,0,0,1,0-40.48,20.28,20.28,0,0,1,20.19,20.22A20.23,20.23,0,0,1,780.24,741.19Z" transform="translate(-181 -253.85)"/><path class="cls-1" d="M285.72,651.72c15.41,5,43.27,3.62,62.25-3.2l51.42-18.66v54c-3.28.55-6.88,1.15-10.22,1.69a337.17,337.17,0,0,1-160.25-12.9C178.58,658.53,170.17,629,193.12,612c21.24-15.73,57.29-27.52,57.29-27.52l149-53v60.35L292.18,630.27C273.2,637.06,270.34,646.71,285.72,651.72Z" transform="translate(-181 -253.85)"/><path class="cls-1" d="M813.32,630.63c-12.48,15.73-43,27-43,27L543.19,739.17V679l167.16-59.61c19-6.78,21.9-16.39,6.49-21.42s-43.27-3.61-62.25,3.18l-111.4,39.26V578l6.39-2.16s32.23-11.42,77.44-16.47c45.28-4.9,100.71.69,144.21,17.21C820.26,592.09,825.77,614.93,813.32,630.63Z" transform="translate(-181 -253.85)"/><path class="cls-1" d="M564.81,528.2V374.34c0-18-3.32-34.61-20.29-39.33-13-4.23-21,7.87-21,25.89V746.15l-104-33V253.85c44.22,8.19,108.58,27.58,143.21,39.2,88,30.25,117.81,67.85,117.81,152.55C680.57,528.17,629.6,559.49,564.81,528.2Z" transform="translate(-181 -253.85)"/></svg>